<mxfile host="app.diagrams.net" modified="2024-03-16T10:42:44.231Z" agent="Mozilla/5.0 (Windows NT 10.0; Win64; x64; rv:123.0) Gecko/20100101 Firefox/123.0" etag="IGmpHtubyWZGxjKPdh8P" version="24.0.7" type="device">
  <diagram name="Page-1" id="MpH3Cv4GL0Jw8Vqmsv_E">
    <mxGraphModel dx="1050" dy="558" grid="1" gridSize="10" guides="1" tooltips="1" connect="1" arrows="1" fold="1" page="1" pageScale="1" pageWidth="850" pageHeight="1100" math="0" shadow="0">
      <root>
        <mxCell id="0" />
        <mxCell id="1" parent="0" />
        <mxCell id="K3JU7NIG6CWHfl_ctI6P-3" value="" style="edgeStyle=orthogonalEdgeStyle;rounded=0;orthogonalLoop=1;jettySize=auto;html=1;entryX=0;entryY=0.5;entryDx=0;entryDy=0;" edge="1" parent="1" source="K3JU7NIG6CWHfl_ctI6P-1" target="K3JU7NIG6CWHfl_ctI6P-2">
          <mxGeometry relative="1" as="geometry">
            <Array as="points">
              <mxPoint x="170" y="170" />
            </Array>
          </mxGeometry>
        </mxCell>
        <mxCell id="K3JU7NIG6CWHfl_ctI6P-1" value="1] Start" style="rounded=0;whiteSpace=wrap;html=1;" vertex="1" parent="1">
          <mxGeometry x="110" y="40" width="120" height="60" as="geometry" />
        </mxCell>
        <mxCell id="K3JU7NIG6CWHfl_ctI6P-5" value="" style="edgeStyle=orthogonalEdgeStyle;rounded=0;orthogonalLoop=1;jettySize=auto;html=1;entryX=0;entryY=0.5;entryDx=0;entryDy=0;" edge="1" parent="1" source="K3JU7NIG6CWHfl_ctI6P-2" target="K3JU7NIG6CWHfl_ctI6P-4">
          <mxGeometry relative="1" as="geometry">
            <Array as="points">
              <mxPoint x="290" y="250" />
            </Array>
          </mxGeometry>
        </mxCell>
        <mxCell id="K3JU7NIG6CWHfl_ctI6P-2" value="2.1] Generate a random number from 1 to number of words present in database" style="rounded=0;whiteSpace=wrap;html=1;" vertex="1" parent="1">
          <mxGeometry x="230" y="140" width="120" height="60" as="geometry" />
        </mxCell>
        <mxCell id="K3JU7NIG6CWHfl_ctI6P-9" value="" style="edgeStyle=orthogonalEdgeStyle;rounded=0;orthogonalLoop=1;jettySize=auto;html=1;entryX=0;entryY=0.5;entryDx=0;entryDy=0;entryPerimeter=0;" edge="1" parent="1" source="K3JU7NIG6CWHfl_ctI6P-4" target="K3JU7NIG6CWHfl_ctI6P-10">
          <mxGeometry relative="1" as="geometry">
            <mxPoint x="499.97" y="119.03999999999996" as="targetPoint" />
            <Array as="points">
              <mxPoint x="500" y="240" />
              <mxPoint x="500" y="120" />
            </Array>
          </mxGeometry>
        </mxCell>
        <mxCell id="K3JU7NIG6CWHfl_ctI6P-11" value="Requesting data" style="edgeLabel;html=1;align=center;verticalAlign=middle;resizable=0;points=[];" vertex="1" connectable="0" parent="K3JU7NIG6CWHfl_ctI6P-9">
          <mxGeometry x="0.1659" y="1" relative="1" as="geometry">
            <mxPoint as="offset" />
          </mxGeometry>
        </mxCell>
        <mxCell id="K3JU7NIG6CWHfl_ctI6P-4" value="2.2] Request the word at the index of the random number generated" style="whiteSpace=wrap;html=1;rounded=0;" vertex="1" parent="1">
          <mxGeometry x="350" y="220" width="120" height="60" as="geometry" />
        </mxCell>
        <mxCell id="K3JU7NIG6CWHfl_ctI6P-15" value="" style="edgeStyle=orthogonalEdgeStyle;rounded=0;orthogonalLoop=1;jettySize=auto;html=1;" edge="1" parent="1" source="K3JU7NIG6CWHfl_ctI6P-6" target="K3JU7NIG6CWHfl_ctI6P-14">
          <mxGeometry relative="1" as="geometry">
            <Array as="points">
              <mxPoint x="500" y="450" />
            </Array>
          </mxGeometry>
        </mxCell>
        <mxCell id="K3JU7NIG6CWHfl_ctI6P-6" value="2.3] Store the word in &quot;chosen_word&quot;" style="whiteSpace=wrap;html=1;rounded=0;" vertex="1" parent="1">
          <mxGeometry x="440" y="330" width="120" height="60" as="geometry" />
        </mxCell>
        <mxCell id="K3JU7NIG6CWHfl_ctI6P-12" style="edgeStyle=orthogonalEdgeStyle;rounded=0;orthogonalLoop=1;jettySize=auto;html=1;exitX=1;exitY=0.5;exitDx=0;exitDy=0;exitPerimeter=0;entryX=1;entryY=0.5;entryDx=0;entryDy=0;" edge="1" parent="1" source="K3JU7NIG6CWHfl_ctI6P-10" target="K3JU7NIG6CWHfl_ctI6P-6">
          <mxGeometry relative="1" as="geometry" />
        </mxCell>
        <mxCell id="K3JU7NIG6CWHfl_ctI6P-13" value="Retrieving data" style="edgeLabel;html=1;align=center;verticalAlign=middle;resizable=0;points=[];" vertex="1" connectable="0" parent="K3JU7NIG6CWHfl_ctI6P-12">
          <mxGeometry x="0.3315" relative="1" as="geometry">
            <mxPoint as="offset" />
          </mxGeometry>
        </mxCell>
        <mxCell id="K3JU7NIG6CWHfl_ctI6P-10" value="Database containing all the words for the game" style="shape=cylinder3;whiteSpace=wrap;html=1;boundedLbl=1;backgroundOutline=1;size=15;" vertex="1" parent="1">
          <mxGeometry x="560" y="40" width="90" height="160" as="geometry" />
        </mxCell>
        <mxCell id="K3JU7NIG6CWHfl_ctI6P-14" value="3] Player plays the game" style="whiteSpace=wrap;html=1;rounded=0;" vertex="1" parent="1">
          <mxGeometry x="520" y="420" width="120" height="60" as="geometry" />
        </mxCell>
      </root>
    </mxGraphModel>
  </diagram>
</mxfile>
